<svg width="704" height="976" viewBox="0 0 704 976" fill="none" xmlns="http://www.w3.org/2000/svg">
<rect width="704" height="976" rx="16" fill="url(#paint0_linear_428_3595)"/>
<mask id="mask0_428_3595" style="mask-type:alpha" maskUnits="userSpaceOnUse" x="0" y="0" width="704" height="976">
<rect width="704" height="976" fill="url(#paint1_linear_428_3595)"/>
</mask>
<g mask="url(#mask0_428_3595)">
<ellipse cx="436.786" cy="1018.85" rx="68.8633" ry="68.8425" fill="url(#paint2_linear_428_3595)"/>
<g filter="url(#filter0_b_428_3595)">
<path d="M471 774.844C471 1038.74 257.003 1252.69 -7 1252.69C-271.003 1252.69 -485 1038.74 -485 774.844C-485 510.949 -271.003 297 -7 297C257.003 297 471 510.949 471 774.844Z" stroke="url(#paint3_radial_428_3595)" stroke-opacity="0.7" stroke-width="80"/>
</g>
<g filter="url(#filter1_b_428_3595)">
<path d="M382.433 772.747C382.433 987.747 208.086 1162.05 -7.00012 1162.05C-222.087 1162.05 -396.433 987.747 -396.433 772.747C-396.433 557.748 -222.087 383.441 -7.00012 383.441C208.086 383.441 382.433 557.748 382.433 772.747Z" stroke="url(#paint4_radial_428_3595)" stroke-opacity="0.65" stroke-width="60"/>
</g>
<path d="M288.547 772.745C288.547 935.904 156.237 1068.19 -7.00006 1068.19C-170.237 1068.19 -302.547 935.904 -302.547 772.745C-302.547 609.587 -170.237 477.3 -7.00006 477.3C156.237 477.3 288.547 609.587 288.547 772.745Z" stroke="url(#paint5_radial_428_3595)" stroke-opacity="0.81" stroke-width="80"/>
<ellipse cx="270.366" cy="339.99" rx="24.8673" ry="24.8598" fill="url(#paint6_linear_428_3595)"/>
</g>
<defs>
<filter id="filter0_b_428_3595" x="-535" y="247" width="1056" height="1055.69" filterUnits="userSpaceOnUse" color-interpolation-filters="sRGB">
<feFlood flood-opacity="0" result="BackgroundImageFix"/>
<feGaussianBlur in="BackgroundImageFix" stdDeviation="5"/>
<feComposite in2="SourceAlpha" operator="in" result="effect1_backgroundBlur_428_3595"/>
<feBlend mode="normal" in="SourceGraphic" in2="effect1_backgroundBlur_428_3595" result="shape"/>
</filter>
<filter id="filter1_b_428_3595" x="-436.433" y="343.441" width="858.866" height="858.613" filterUnits="userSpaceOnUse" color-interpolation-filters="sRGB">
<feFlood flood-opacity="0" result="BackgroundImageFix"/>
<feGaussianBlur in="BackgroundImageFix" stdDeviation="5"/>
<feComposite in2="SourceAlpha" operator="in" result="effect1_backgroundBlur_428_3595"/>
<feBlend mode="normal" in="SourceGraphic" in2="effect1_backgroundBlur_428_3595" result="shape"/>
</filter>
<linearGradient id="paint0_linear_428_3595" x1="704" y1="976" x2="-222.139" y2="307.965" gradientUnits="userSpaceOnUse">
<stop stop-color="#42A7C3"/>
<stop offset="0.750282" stop-color="#42A7C3"/>
</linearGradient>
<linearGradient id="paint1_linear_428_3595" x1="704" y1="976" x2="-222.139" y2="307.965" gradientUnits="userSpaceOnUse">
<stop stop-color="#8360C3"/>
<stop offset="0.750282" stop-color="#2EBF91"/>
</linearGradient>
<linearGradient id="paint2_linear_428_3595" x1="505.649" y1="1087.7" x2="367.964" y2="949.969" gradientUnits="userSpaceOnUse">
<stop stop-color="#42A7C3"/>
<stop offset="0.750282" stop-color="#8ADBF0"/>
</linearGradient>
<radialGradient id="paint3_radial_428_3595" cx="0" cy="0" r="1" gradientUnits="userSpaceOnUse" gradientTransform="translate(-21.5688 797.499) rotate(88.7893) scale(689.533 689.741)">
<stop offset="0.654764" stop-color="#E2F6FC" stop-opacity="0.36"/>
<stop offset="1" stop-color="#48B7D6" stop-opacity="0.84"/>
</radialGradient>
<radialGradient id="paint4_radial_428_3595" cx="0" cy="0" r="1" gradientUnits="userSpaceOnUse" gradientTransform="translate(-18.7967 791.092) rotate(88.7893) scale(558.326 558.495)">
<stop offset="0.654764" stop-color="#E2F6FC" stop-opacity="0.36"/>
<stop offset="1" stop-color="#48B7D6" stop-opacity="0.84"/>
</radialGradient>
<radialGradient id="paint5_radial_428_3595" cx="0" cy="0" r="1" gradientUnits="userSpaceOnUse" gradientTransform="translate(-16.4373 787.421) rotate(88.7893) scale(446.661 446.796)">
<stop offset="0.654764" stop-color="#E2F6FC" stop-opacity="0.36"/>
<stop offset="1" stop-color="#48B7D6" stop-opacity="0"/>
</radialGradient>
<linearGradient id="paint6_linear_428_3595" x1="295.234" y1="364.85" x2="245.514" y2="315.115" gradientUnits="userSpaceOnUse">
<stop stop-color="#FFA679"/>
<stop offset="0.750282" stop-color="#FA8443"/>
</linearGradient>
</defs>
</svg>
