<svg width="25" height="24" viewBox="0 0 25 24" fill="none" xmlns="http://www.w3.org/2000/svg">
<path fill-rule="evenodd" clip-rule="evenodd" d="M22.6 12.2272C22.6 11.5181 22.5364 10.8363 22.4182 10.1818H13V14.0499H18.3818C18.15 15.2999 17.4455 16.359 16.3864 17.0681V19.5772H19.6182C21.5091 17.8363 22.6 15.2727 22.6 12.2272Z" fill="#4285F4"/>
<path fill-rule="evenodd" clip-rule="evenodd" d="M13 21.9999C15.7 21.9999 17.9636 21.1044 19.6181 19.5772L16.3863 17.0681C15.4909 17.6681 14.3454 18.0226 13 18.0226C10.3954 18.0226 8.19087 16.2635 7.40451 13.8999H4.0636V16.4908C5.70905 19.759 9.09087 21.9999 13 21.9999Z" fill="#34A853"/>
<path fill-rule="evenodd" clip-rule="evenodd" d="M7.40455 13.9001C7.20455 13.3001 7.09091 12.6592 7.09091 12.0001C7.09091 11.341 7.20455 10.7001 7.40455 10.1001V7.50916H4.06364C3.38636 8.85916 3 10.3864 3 12.0001C3 13.6137 3.38636 15.141 4.06364 16.491L7.40455 13.9001Z" fill="#FBBC05"/>
<path fill-rule="evenodd" clip-rule="evenodd" d="M13 5.97727C14.4681 5.97727 15.7863 6.48182 16.8227 7.47273L19.6909 4.60455C17.9591 2.99091 15.6954 2 13 2C9.09087 2 5.70905 4.24091 4.0636 7.50909L7.40451 10.1C8.19087 7.73636 10.3954 5.97727 13 5.97727Z" fill="#EA4335"/>
</svg>
